{
  "accessors": {
    "accessor_100": {
      "bufferView": "bufferView_0",
      "byteOffset": 0,
      "byteStride": 0,
      "componentType": 5126,
      "count": 4,
      "max": [
        9.752025604248047,
        11.49710750579834,
        3.746500015258789
      ],
      "min": [
        0,
        0,
        3.746500015258789
      ],
      "type": "VEC3"
    },
    "accessor_102": {
      "bufferView": "bufferView_0",
      "byteOffset": 48,
      "byteStride": 0,
      "componentType": 5126,
      "count": 4,
      "max": [
        0,
        0,
        0
      ],
      "min": [
        0,
        0,
        0
      ],
      "type": "VEC3"
    },
    "accessor_123": {
      "bufferView": "bufferView_1",
      "byteOffset": 0,
      "byteStride": 0,
      "componentType": 5123,
      "count": 12,
      "type": "SCALAR",
      "min": [
        0
      ],
      "max": [
        7
      ]
    },
    "accessor_125": {
      "bufferView": "bufferView_0",
      "byteOffset": 96,
      "byteStride": 0,
      "componentType": 5126,
      "count": 8,
      "max": [
        9.752025604248047,
        11.49710750579834,
        3.746500015258789
      ],
      "min": [
        0,
        0,
        3.746500015258789
      ],
      "type": "VEC3"
    },
    "accessor_127": {
      "bufferView": "bufferView_0",
      "byteOffset": 192,
      "byteStride": 0,
      "componentType": 5126,
      "count": 8,
      "max": [
        0,
        0,
        1
      ],
      "min": [
        0,
        0,
        -1
      ],
      "type": "VEC3"
    },
    "accessor_129": {
      "bufferView": "bufferView_0",
      "byteOffset": 288,
      "byteStride": 0,
      "componentType": 5126,
      "count": 8,
      "max": [
        31.99479866027832,
        1
      ],
      "min": [
        0,
        -36.72019958496094
      ],
      "type": "VEC2"
    },
    "accessor_145": {
      "bufferView": "bufferView_1",
      "byteOffset": 24,
      "byteStride": 0,
      "componentType": 5123,
      "count": 8,
      "type": "SCALAR",
      "min": [
        0
      ],
      "max": [
        3
      ]
    },
    "accessor_147": {
      "bufferView": "bufferView_0",
      "byteOffset": 352,
      "byteStride": 0,
      "componentType": 5126,
      "count": 4,
      "max": [
        9.752025604248047,
        0,
        3.746500015258789
      ],
      "min": [
        0,
        0,
        0
      ],
      "type": "VEC3"
    },
    "accessor_172": {
      "bufferView": "bufferView_0",
      "byteOffset": 400,
      "byteStride": 0,
      "componentType": 5126,
      "count": 8,
      "max": [
        9.752025604248047,
        0,
        3.746500015258789
      ],
      "min": [
        0,
        0,
        0
      ],
      "type": "VEC3"
    },
    "accessor_174": {
      "bufferView": "bufferView_0",
      "byteOffset": 496,
      "byteStride": 0,
      "componentType": 5126,
      "count": 8,
      "max": [
        0,
        1,
        0
      ],
      "min": [
        0,
        -1,
        0
      ],
      "type": "VEC3"
    },
    "accessor_176": {
      "bufferView": "bufferView_0",
      "byteOffset": 592,
      "byteStride": 0,
      "componentType": 5126,
      "count": 8,
      "max": [
        0.9999799728393555,
        0.00002002716064453125
      ],
      "min": [
        0,
        -0.9999599456787109
      ],
      "type": "VEC2"
    },
    "accessor_194": {
      "bufferView": "bufferView_0",
      "byteOffset": 656,
      "byteStride": 0,
      "componentType": 5126,
      "count": 4,
      "max": [
        0,
        11.49710750579834,
        3.746500015258789
      ],
      "min": [
        0,
        0,
        0
      ],
      "type": "VEC3"
    },
    "accessor_219": {
      "bufferView": "bufferView_0",
      "byteOffset": 704,
      "byteStride": 0,
      "componentType": 5126,
      "count": 8,
      "max": [
        0,
        11.49710750579834,
        3.746500015258789
      ],
      "min": [
        0,
        0,
        0
      ],
      "type": "VEC3"
    },
    "accessor_221": {
      "bufferView": "bufferView_0",
      "byteOffset": 800,
      "byteStride": 0,
      "componentType": 5126,
      "count": 8,
      "max": [
        1,
        0,
        0
      ],
      "min": [
        -1,
        0,
        0
      ],
      "type": "VEC3"
    },
    "accessor_223": {
      "bufferView": "bufferView_0",
      "byteOffset": 896,
      "byteStride": 0,
      "componentType": 5126,
      "count": 8,
      "max": [
        1,
        0
      ],
      "min": [
        -2.2204500197172533e-16,
        -1
      ],
      "type": "VEC2"
    },
    "accessor_31": {
      "bufferView": "bufferView_1",
      "byteOffset": 40,
      "byteStride": 0,
      "componentType": 5123,
      "count": 8,
      "type": "SCALAR",
      "min": [
        8
      ],
      "max": [
        11
      ]
    },
    "accessor_33": {
      "bufferView": "bufferView_0",
      "byteOffset": 960,
      "byteStride": 0,
      "componentType": 5126,
      "count": 12,
      "max": [
        9.752025604248047,
        11.49710750579834,
        0
      ],
      "min": [
        0,
        0,
        0
      ],
      "type": "VEC3"
    },
    "accessor_35": {
      "bufferView": "bufferView_0",
      "byteOffset": 1104,
      "byteStride": 0,
      "componentType": 5126,
      "count": 12,
      "max": [
        0,
        0,
        1
      ],
      "min": [
        0,
        0,
        -1
      ],
      "type": "VEC3"
    },
    "accessor_51": {
      "bufferView": "bufferView_1",
      "byteOffset": 56,
      "byteStride": 0,
      "componentType": 5123,
      "count": 14,
      "type": "SCALAR",
      "min": [
        0
      ],
      "max": [
        5
      ]
    },
    "accessor_53": {
      "bufferView": "bufferView_0",
      "byteOffset": 1248,
      "byteStride": 0,
      "componentType": 5126,
      "count": 6,
      "max": [
        9.752025604248047,
        11.49710750579834,
        3.746500015258789
      ],
      "min": [
        0,
        0,
        0
      ],
      "type": "VEC3"
    },
    "accessor_55": {
      "bufferView": "bufferView_0",
      "byteOffset": 1320,
      "byteStride": 0,
      "componentType": 5126,
      "count": 6,
      "max": [
        0,
        0,
        0
      ],
      "min": [
        0,
        0,
        0
      ],
      "type": "VEC3"
    },
    "accessor_76": {
      "bufferView": "bufferView_1",
      "byteOffset": 84,
      "byteStride": 0,
      "componentType": 5123,
      "count": 24,
      "type": "SCALAR",
      "min": [
        0
      ],
      "max": [
        15
      ]
    },
    "accessor_78": {
      "bufferView": "bufferView_0",
      "byteOffset": 1392,
      "byteStride": 0,
      "componentType": 5126,
      "count": 16,
      "max": [
        9.752025604248047,
        11.49710750579834,
        3.746500015258789
      ],
      "min": [
        0,
        0,
        0
      ],
      "type": "VEC3"
    },
    "accessor_80": {
      "bufferView": "bufferView_0",
      "byteOffset": 1584,
      "byteStride": 0,
      "componentType": 5126,
      "count": 16,
      "max": [
        1,
        1,
        0
      ],
      "min": [
        -1,
        -1,
        0
      ],
      "type": "VEC3"
    },
    "accessor_82": {
      "bufferView": "bufferView_0",
      "byteOffset": 1776,
      "byteStride": 0,
      "componentType": 5126,
      "count": 16,
      "max": [
        25.146799087524414,
        1
      ],
      "min": [
        -21.329898834228516,
        -4.4629597663879395
      ],
      "type": "VEC2"
    }
  },
  "animations": {},
  "asset": {
    "generator": "collada2gltf@",
    "premultipliedAlpha": true,
    "profile": {
      "api": "WebGL",
      "version": "1.0.2"
    },
    "version": "1.0"
  },
  "bufferViews": {
    "bufferView_0": {
      "buffer": "buffer_0",
      "byteLength": 1904,
      "byteOffset": 0,
      "target": 34962
    },
    "bufferView_1": {
      "buffer": "buffer_0",
      "byteLength": 132,
      "byteOffset": 1904,
      "target": 34963
    }
  },
  "buffers": {
    "buffer_0": {
      "type": "arraybuffer",
      "byteLength": 2036,
      "uri": "data:application/octet-stream;base64,"
    }
  },
  "cameras": {
    "ID1": {
      "name": "skp_camera_Last_Saved_SketchUp_View",
      "perspective": {
        "aspectRatio": 0,
        "yfov": 0.6108652381980153,
        "zfar": 25.39999969303608,
        "znear": 0.02539999969303608
      },
      "type": "perspective"
    }
  },
  "images": {
    "ID10": {
      "name": "ID10",
      "uri": "data:image/jpeg;base64,"
    },
    "ID37": {
      "name": "ID37",
      "uri": "data:image/jpeg;base64,"
    },
    "ID52": {
      "name": "ID52",
      "uri": "data:image/jpeg;base64,"
    },
    "ID67": {
      "name": "ID67",
      "uri": "data:image/jpeg;base64,"
    }
  },
  "materials": {
    "ID19": {
      "name": "edge_color000255",
      "technique": "technique0",
      "values": {}
    },
    "ID26": {
      "name": "__auto_1",
      "technique": "technique1",
      "values": {
        "diffuse": [
          1,
          1,
          1,
          1
        ]
      }
    },
    "ID36": {
      "name": "__auto_3",
      "technique": "technique2",
      "values": {
        "diffuse": "texture_ID37"
      }
    },
    "ID51": {
      "name": "__auto_4",
      "technique": "technique2",
      "values": {
        "diffuse": "texture_ID52"
      }
    },
    "ID66": {
      "name": "__auto_5",
      "technique": "technique2",
      "values": {
        "diffuse": "texture_ID67"
      }
    },
    "ID9": {
      "name": "__auto_",
      "technique": "technique2",
      "values": {
        "diffuse": "texture_ID10"
      }
    }
  },
  "meshes": {
    "ID6_mesh_0": {
      "name": "ID6_mesh",
      "primitives": [
        {
          "attributes": {
            "NORMAL": "accessor_35",
            "POSITION": "accessor_33"
          },
          "indices": "accessor_123",
          "material": "ID26",
          "mode": 4
        },
        {
          "attributes": {
            "NORMAL": "accessor_35",
            "POSITION": "accessor_33"
          },
          "indices": "accessor_31",
          "material": "ID19",
          "mode": 1
        },
        {
          "attributes": {
            "NORMAL": "accessor_80",
            "POSITION": "accessor_78",
            "TEXCOORD_0": "accessor_82"
          },
          "indices": "accessor_76",
          "material": "ID9",
          "mode": 4
        },
        {
          "attributes": {
            "NORMAL": "accessor_55",
            "POSITION": "accessor_53"
          },
          "indices": "accessor_51",
          "material": "ID19",
          "mode": 1
        },
        {
          "attributes": {
            "NORMAL": "accessor_127",
            "POSITION": "accessor_125",
            "TEXCOORD_0": "accessor_129"
          },
          "indices": "accessor_123",
          "material": "ID36",
          "mode": 4
        },
        {
          "attributes": {
            "NORMAL": "accessor_102",
            "POSITION": "accessor_100"
          },
          "indices": "accessor_145",
          "material": "ID19",
          "mode": 1
        },
        {
          "attributes": {
            "NORMAL": "accessor_174",
            "POSITION": "accessor_172",
            "TEXCOORD_0": "accessor_176"
          },
          "indices": "accessor_123",
          "material": "ID51",
          "mode": 4
        },
        {
          "attributes": {
            "NORMAL": "accessor_102",
            "POSITION": "accessor_147"
          },
          "indices": "accessor_145",
          "material": "ID19",
          "mode": 1
        },
        {
          "attributes": {
            "NORMAL": "accessor_221",
            "POSITION": "accessor_219",
            "TEXCOORD_0": "accessor_223"
          },
          "indices": "accessor_123",
          "material": "ID66",
          "mode": 4
        },
        {
          "attributes": {
            "NORMAL": "accessor_102",
            "POSITION": "accessor_194"
          },
          "indices": "accessor_145",
          "material": "ID19",
          "mode": 1
        }
      ]
    }
  },
  "nodes": {
    "ID3": {
      "children": [
        "ID4"
      ],
      "matrix": [
        1,
        0,
        0,
        0,
        0,
        1,
        0,
        0,
        0,
        0,
        1,
        0,
        0,
        0,
        0,
        1
      ],
      "name": "instance_0"
    },
    "ID4": {
      "children": [
        "ID5"
      ],
      "matrix": [
        1,
        0,
        0,
        0,
        0,
        1,
        0,
        0,
        0,
        0,
        1,
        0,
        0,
        0,
        0,
        1
      ],
      "name": "skp6B9B"
    },
    "ID5": {
      "children": [
        "ID6"
      ],
      "matrix": [
        -5.323080089439532e-16,
        0.9799019694328308,
        0,
        0,
        -0.9799019694328308,
        -5.323080089439532e-16,
        0,
        0,
        0,
        0,
        0.9799019694328308,
        0,
        -21.01433563232422,
        -7.773467063903809,
        0.0034545015078037977,
        1
      ],
      "name": "instance_1"
    },
    "ID6": {
      "children": [],
      "matrix": [
        1,
        0,
        0,
        0,
        0,
        1,
        0,
        0,
        0,
        0,
        1,
        0,
        0,
        0,
        0,
        1
      ],
      "meshes": [
        "ID6_mesh_0"
      ],
      "name": "Component"
    },
    "node_0": {
      "children": [
        "node_1",
        "ID3"
      ],
      "matrix": [
        1,
        0,
        0,
        0,
        0,
        1,
        0,
        0,
        0,
        0,
        1,
        0,
        0,
        0,
        0,
        1
      ],
      "name": "SketchUp"
    },
    "node_1": {
      "camera": "ID1",
      "children": [],
      "matrix": [
        0.8320299983024597,
        0.554731011390686,
        -4.163339981939032e-17,
        0,
        -0.10583499819040298,
        0.15873900055885315,
        0.9816319942474365,
        0,
        0.5445420145988464,
        -0.8167470097541809,
        0.1907850056886673,
        0,
        -18.083480834961,
        -16.575939178466797,
        3.6909759044647217,
        1
      ],
      "name": "skp_camera_Last_Saved_SketchUp_View"
    },
    "node_6": {
      "children": [
        "node_0"
      ],
      "matrix": [
        1,
        0,
        0,
        0,
        0,
        0,
        -1,
        0,
        0,
        1,
        0,
        0,
        0,
        0,
        0,
        1
      ],
      "name": "Y_UP_Transform"
    }
  },
  "programs": {
    "program_0": {
      "attributes": [
        "a_normal",
        "a_position"
      ],
      "fragmentShader": "RadelJayanagar0FS",
      "vertexShader": "RadelJayanagar0VS"
    },
    "program_1": {
      "attributes": [
        "a_normal",
        "a_position"
      ],
      "fragmentShader": "RadelJayanagar1FS",
      "vertexShader": "RadelJayanagar1VS"
    },
    "program_2": {
      "attributes": [
        "a_normal",
        "a_position",
        "a_texcoord0"
      ],
      "fragmentShader": "RadelJayanagar2FS",
      "vertexShader": "RadelJayanagar2VS"
    }
  },
  "samplers": {
    "sampler_0": {
      "magFilter": 9729,
      "minFilter": 9729,
      "wrapS": 10497,
      "wrapT": 10497
    }
  },
  "scene": "defaultScene",
  "scenes": {
    "defaultScene": {
      "nodes": [
        "node_6"
      ]
    }
  },
  "shaders": {
    "RadelJayanagar0FS": {
      "type": 35632,
      "uri": "data:text/plain;base64,"
    },
    "RadelJayanagar0VS": {
      "type": 35633,
      "uri": "data:text/plain;base64,"
    },
    "RadelJayanagar1FS": {
      "type": 35632,
      "uri": "data:text/plain;base64,"
    },
    "RadelJayanagar1VS": {
      "type": 35633,
      "uri": "data:text/plain;base64,"
    },
    "RadelJayanagar2FS": {
      "type": 35632,
      "uri": "data:text/plain;base64,"
    },
    "RadelJayanagar2VS": {
      "type": 35633,
      "uri": "data:text/plain;base64,"
    }
  },
  "skins": {},
  "techniques": {
    "technique0": {
      "attributes": {
        "a_normal": "normal",
        "a_position": "position"
      },
      "parameters": {
        "modelViewMatrix": {
          "semantic": "MODELVIEW",
          "type": 35676
        },
        "normal": {
          "semantic": "NORMAL",
          "type": 35665
        },
        "normalMatrix": {
          "semantic": "MODELVIEWINVERSETRANSPOSE",
          "type": 35675
        },
        "position": {
          "semantic": "POSITION",
          "type": 35665
        },
        "projectionMatrix": {
          "semantic": "PROJECTION",
          "type": 35676
        }
      },
      "program": "program_0",
      "states": {
        "enable": [
          2929,
          2884
        ],
        "disable": []
      },
      "uniforms": {
        "u_modelViewMatrix": "modelViewMatrix",
        "u_normalMatrix": "normalMatrix",
        "u_projectionMatrix": "projectionMatrix"
      }
    },
    "technique1": {
      "attributes": {
        "a_normal": "normal",
        "a_position": "position"
      },
      "parameters": {
        "diffuse": {
          "type": 35666
        },
        "modelViewMatrix": {
          "semantic": "MODELVIEW",
          "type": 35676
        },
        "normal": {
          "semantic": "NORMAL",
          "type": 35665
        },
        "normalMatrix": {
          "semantic": "MODELVIEWINVERSETRANSPOSE",
          "type": 35675
        },
        "position": {
          "semantic": "POSITION",
          "type": 35665
        },
        "projectionMatrix": {
          "semantic": "PROJECTION",
          "type": 35676
        }
      },
      "program": "program_1",
      "states": {
        "enable": [
          2929,
          2884
        ],
        "disable": []
      },
      "uniforms": {
        "u_diffuse": "diffuse",
        "u_modelViewMatrix": "modelViewMatrix",
        "u_normalMatrix": "normalMatrix",
        "u_projectionMatrix": "projectionMatrix"
      }
    },
    "technique2": {
      "attributes": {
        "a_normal": "normal",
        "a_position": "position",
        "a_texcoord0": "texcoord0"
      },
      "parameters": {
        "diffuse": {
          "type": 35678
        },
        "modelViewMatrix": {
          "semantic": "MODELVIEW",
          "type": 35676
        },
        "normal": {
          "semantic": "NORMAL",
          "type": 35665
        },
        "normalMatrix": {
          "semantic": "MODELVIEWINVERSETRANSPOSE",
          "type": 35675
        },
        "position": {
          "semantic": "POSITION",
          "type": 35665
        },
        "projectionMatrix": {
          "semantic": "PROJECTION",
          "type": 35676
        },
        "texcoord0": {
          "semantic": "TEXCOORD_0",
          "type": 35664
        }
      },
      "program": "program_2",
      "states": {
        "enable": [
          2929,
          2884
        ],
        "disable": []
      },
      "uniforms": {
        "u_diffuse": "diffuse",
        "u_modelViewMatrix": "modelViewMatrix",
        "u_normalMatrix": "normalMatrix",
        "u_projectionMatrix": "projectionMatrix"
      }
    }
  },
  "textures": {
    "texture_ID10": {
      "format": 6408,
      "internalFormat": 6408,
      "sampler": "sampler_0",
      "source": "ID10",
      "target": 3553,
      "type": 5121
    },
    "texture_ID37": {
      "format": 6408,
      "internalFormat": 6408,
      "sampler": "sampler_0",
      "source": "ID37",
      "target": 3553,
      "type": 5121
    },
    "texture_ID52": {
      "format": 6408,
      "internalFormat": 6408,
      "sampler": "sampler_0",
      "source": "ID52",
      "target": 3553,
      "type": 5121
    },
    "texture_ID67": {
      "format": 6408,
      "internalFormat": 6408,
      "sampler": "sampler_0",
      "source": "ID67",
      "target": 3553,
      "type": 5121
    }
  },
  "extensionsUsed": [],
  "extensions": {
    "KHR_materials_common": {
      "lights": {}
    }
  }
}
